{
    "asset" : {
        "generator" : "Khronos glTF Blender I/O v3.2.43",
        "version" : "2.0"
    },
    "scene" : 0,
    "scenes" : [
        {
            "extras" : {
                "t3dExportFormat__" : 2,
                "t3dExportLights__" : 1,
                "t3dExportCameras__" : 1,
                "t3dExportOnSave__" : 1,
                "t3dPackTextures__" : 1,
                "t3dCollections__" : {
                    "Collection" : {
                        "objects" : [
                            "Camera"
                        ],
                        "offset" : [
                            0.0,
                            0.0,
                            0.0
                        ]
                    }
                },
                "t3dWorldColor__" : [
                    0.05087608844041824,
                    0.05087608844041824,
                    0.05087608844041824,
                    1.0
                ],
                "t3dWorldEnergy__" : 1.0
            },
            "name" : "Scene",
            "nodes" : [
                0,
                1
            ]
        }
    ],
    "nodes" : [
        {
            "extras" : {
                "t3dVisible__" : 1,
                "t3dOriginalLocalPosition__" : [
                    0.0,
                    0.0,
                    0.0
                ]
            },
            "mesh" : 0,
            "name" : "Tetra",
            "rotation" : [
                0.0015137705486267805,
                -0.01820792257785797,
                -0.21682746708393097,
                0.976038932800293
            ],
            "scale" : [
                0.7759767174720764,
                0.7759765982627869,
                0.7759766578674316
            ]
        },
        {
            "camera" : 0,
            "extras" : {
                "t3dOriginalLocalPosition__" : [
                    -7.960841655731201,
                    -7.960842132568359,
                    6.5
                ]
            },
            "name" : "Camera",
            "rotation" : [
                -0.2391175776720047,
                -0.36964380741119385,
                -0.09904573857784271,
                0.8923991322517395
            ],
            "translation" : [
                -7.960841655731201,
                6.5,
                7.960842132568359
            ]
        }
    ],
    "cameras" : [
        {
            "name" : "Camera",
            "perspective" : {
                "aspectRatio" : 1.7777777777777777,
                "yfov" : 0.39959652046304894,
                "zfar" : 1000,
                "znear" : 0.10000000149011612
            },
            "type" : "perspective"
        }
    ],
    "materials" : [
        {
            "emissiveFactor" : [
                1,
                1,
                1
            ],
            "extras" : {
                "t3dMaterialShadeless__" : 1
            },
            "name" : "Vertex Coloring",
            "pbrMetallicRoughness" : {
                "baseColorFactor" : [
                    0,
                    0,
                    0,
                    1
                ]
            }
        }
    ],
    "meshes" : [
        {
            "extras" : {
                "t3dVertexColorNames__" : [
                    "Col"
                ]
            },
            "name" : "Cone",
            "primitives" : [
                {
                    "attributes" : {
                        "POSITION" : 0,
                        "NORMAL" : 1,
                        "TEXCOORD_0" : 2,
                        "COLOR_0" : 3
                    },
                    "indices" : 4,
                    "material" : 0
                },
                {
                    "attributes" : {
                        "POSITION" : 5,
                        "NORMAL" : 6,
                        "TEXCOORD_0" : 7,
                        "COLOR_0" : 8
                    },
                    "indices" : 9,
                    "material" : 0
                }
            ]
        }
    ],
    "accessors" : [
        {
            "bufferView" : 0,
            "componentType" : 5126,
            "count" : 12,
            "max" : [
                1.2245599031448364,
                1.4999831914901733,
                0.7070000767707825
            ],
            "min" : [
                -1.224560022354126,
                -0.5000168085098267,
                -1.4140000343322754
            ],
            "type" : "VEC3"
        },
        {
            "bufferView" : 1,
            "componentType" : 5126,
            "count" : 12,
            "type" : "VEC3"
        },
        {
            "bufferView" : 2,
            "componentType" : 5126,
            "count" : 12,
            "type" : "VEC2"
        },
        {
            "bufferView" : 3,
            "componentType" : 5123,
            "count" : 12,
            "normalized" : true,
            "type" : "VEC4"
        },
        {
            "bufferView" : 4,
            "componentType" : 5123,
            "count" : 12,
            "type" : "SCALAR"
        },
        {
            "bufferView" : 5,
            "componentType" : 5126,
            "count" : 12,
            "max" : [
                1.3974322080612183,
                1.6746004819869995,
                0.8108012080192566
            ],
            "min" : [
                -1.4089090824127197,
                -0.6170827150344849,
                -1.6195634603500366
            ],
            "type" : "VEC3"
        },
        {
            "bufferView" : 6,
            "componentType" : 5126,
            "count" : 12,
            "type" : "VEC3"
        },
        {
            "bufferView" : 7,
            "componentType" : 5126,
            "count" : 12,
            "type" : "VEC2"
        },
        {
            "bufferView" : 8,
            "componentType" : 5123,
            "count" : 12,
            "normalized" : true,
            "type" : "VEC4"
        },
        {
            "bufferView" : 9,
            "componentType" : 5123,
            "count" : 12,
            "type" : "SCALAR"
        }
    ],
    "bufferViews" : [
        {
            "buffer" : 0,
            "byteLength" : 144,
            "byteOffset" : 0
        },
        {
            "buffer" : 0,
            "byteLength" : 144,
            "byteOffset" : 144
        },
        {
            "buffer" : 0,
            "byteLength" : 96,
            "byteOffset" : 288
        },
        {
            "buffer" : 0,
            "byteLength" : 96,
            "byteOffset" : 384
        },
        {
            "buffer" : 0,
            "byteLength" : 24,
            "byteOffset" : 480
        },
        {
            "buffer" : 0,
            "byteLength" : 144,
            "byteOffset" : 504
        },
        {
            "buffer" : 0,
            "byteLength" : 144,
            "byteOffset" : 648
        },
        {
            "buffer" : 0,
            "byteLength" : 96,
            "byteOffset" : 792
        },
        {
            "buffer" : 0,
            "byteLength" : 96,
            "byteOffset" : 888
        },
        {
            "buffer" : 0,
            "byteLength" : 24,
            "byteOffset" : 984
        }
    ],
    "buffers" : [
        {
            "byteLength" : 1008,
            "uri" : "data:application/octet-stream;base64,"
        }
    ]
}
